#!OML:ASF E:\Mandelcareful walks\Project 1\Capture day 1\Session 1\Subject1.ASF
:FULLY-SPECIFIED
:DEGREES
511
root -19.5092 15.251 -0.0616054 141.969 83.1058 124.35
lowerback 24.933 -0.840471 -3.42975
upperback 6.0247 -1.42827 0.0833737
thorax -7.08641 -0.430339 2.46321
lowerneck -28.5553 2.86681 -1.09465
upperneck 10.9843 5.74545 -7.12445
head 8.18023 1.94113 -1.41143
rclavicle 2.08724e-014 -2.38542e-014
rhumerus -8.44803 1.06249 -75.6638
rradius 77.0918
rwrist -12.4878
rhand -27.3992 -27.8606
rfingers 7.12502
rthumb -0.805664 662.161
lclavicle 2.08724e-014 -2.38542e-014
lhumerus -4.00084 -11.8489 72.7246
lradius 67.2222
lwrist 21.4649
lhand -37.2299 -24.2053
lfingers 7.12502
lthumb -10.2965 5.52266
rfemur -51.7499 -18.2957 7.47834
rtibia 53.748
rfoot -14.4852 -3.14915
rtoes -9.67416
lfemur -45.2064 17.5906 -14.8256
ltibia 49.1725
lfoot -13.5391 0.514877
ltoes -12.5729
512
root -19.4992 15.2549 -0.0859 140.362 83.1531 122.71
lowerback 24.9019 -0.786186 -3.4829
upperback 6.00753 -1.38096 0.00118114
thorax -7.0935 -0.407951 2.389
lowerneck -28.5144 2.90171 -1.27984
upperneck 11.0296 5.80531 -6.84308
head 8.1741 1.98966 -1.27774
rclavicle 3.97569e-015 1.19271e-015
rhumerus -8.66767 0.907951 -75.7709
rradius 77.0399
rwrist -12.5921
rhand -27.4241 -27.1298
rfingers 7.12502
rthumb -0.829672 662.892
lclavicle 3.97569e-015 1.19271e-015
lhumerus -4.07101 -12.2874 72.5261
lradius 67.2858
lwrist 21.7383
lhand -37.036 -23.5165
lfingers 7.12502
lthumb -10.1094 6.22064
rfemur -51.715 -18.1587 7.25525
rtibia 53.6317
rfoot -14.4676 -3.16967
rtoes -10.1723
lfemur -45.1797 17.5611 -14.9786
ltibia 49.2749
lfoot -13.6565 0.639374
ltoes -12.4839
513
root -19.4919 15.2584 -0.108987 139.974 83.1652 122.271
lowerback 24.7664 -0.739084 -3.52748
upperback 6.0239 -1.32275 0.0589089
thorax -7.00758 -0.382462 2.45772
lowerneck -28.1919 2.9469 -1.58825
upperneck 10.8644 5.93165 -6.71067
head 8.05774 2.06411 -1.16759
rclavicle -8.94531e-015 -1.59028e-015
rhumerus -8.83764 0.828243 -75.6231
rradius 77.1332
rwrist -12.5607
rhand -27.3299 -27.2567
rfingers 7.12502
rthumb -0.738711 662.765
lclavicle -8.94531e-015 -1.59028e-015
lhumerus -4.12125 -12.6808 72.5444
lradius 67.3252
lwrist 21.7404
lhand -36.5991 -22.5812
lfingers 7.12502
lthumb -9.68789 7.17605
rfemur -51.6872 -18.1203 7.12274
rtibia 53.5589
rfoot -14.4777 -3.19591
rtoes -10.5338
lfemur -45.2166 17.4359 -15.0466
ltibia 49.3691
lfoot -13.7372 0.665545
ltoes -11.6568
514
root -19.484 15.261 -0.130699 140.158 83.158 122.409
lowerback 25.0598 -0.764439 -3.44797
upperback 5.74838 -1.3684 0.0880468
thorax -7.46076 -0.3987 2.46806
lowerneck -27.9002 3.21572 -1.38874
upperneck 10.9782 6.29223 -7.11739
head 8.08701 2.20076 -1.2843
rclavicle 1.33186e-014 2.26615e-014
rhumerus -9.305 0.990159 -75.5542
rradius 77.1961
rwrist -12.3969
rhand -27.1165 -28.0716
rfingers 7.12502
rthumb -0.532651 661.949
lclavicle 1.33186e-014 2.26615e-014
lhumerus -4.54061 -13.1238 72.566
lradius 67.2592
lwrist 21.4775
lhand -35.7883 -21.2985
lfingers 7.12502
lthumb -8.90547 8.4936
rfemur -51.6698 -18.1976 7.06566
rtibia 53.5018
rfoot -14.4813 -3.20541
rtoes -10.6666
lfemur -45.2886 17.3878 -15.1242
ltibia 49.4699
lfoot -13.8626 0.648186
ltoes -10.8497
515
root -19.4726 15.2654 -0.14973 140.187 83.1356 122.45
lowerback 25.1603 -0.795119 -3.46152
upperback 5.6801 -1.41208 0.179272
thorax -7.58174 -0.416793 2.59283
lowerneck -27.9739 3.50906 -1.22426
upperneck 11.1509 6.73403 -7.57497
head 8.19977 2.35968 -1.39737
rclavicle 7.95139e-016 -1.74931e-014
rhumerus -9.41962 1.21686 -75.3733
rradius 77.1586
rwrist -12.3236
rhand -27.2232 -28.9785
rfingers 7.12502
rthumb -0.635661 661.043
lclavicle 7.95139e-016 -1.74931e-014
lhumerus -4.60212 -13.4571 72.5757
lradius 67.0688
lwrist 21.3388
lhand -34.7039 -19.7001
lfingers 7.12502
lthumb -7.85895 10.1338
rfemur -51.5735 -18.2878 6.98672
rtibia 53.4612
rfoot -14.5658 -3.19925
rtoes -10.7958
lfemur -45.3085 17.4442 -15.25
ltibia 49.582
lfoot -13.9659 0.623072
ltoes -10.7463
516
root -19.4593 15.2697 -0.165337 140.177 83.1903 122.446
lowerback 25.1018 -0.797728 -3.43675
upperback 5.7182 -1.39846 0.246477
thorax -7.50942 -0.412045 2.6466
lowerneck -28.1503 3.75886 -1.13929
upperneck 11.3093 7.11316 -7.84162
head 8.31183 2.50322 -1.44133
rclavicle -4.33351e-014 -7.15625e-015
rhumerus -9.44296 1.33211 -75.2457
rradius 77.0988
rwrist -12.259
rhand -27.1809 -29.3537
rfingers 7.12502
rthumb -0.594835 660.667
lclavicle -4.33351e-014 -7.15625e-015
lhumerus -4.42092 -13.9091 72.4617
lradius 66.8123
lwrist 21.3677
lhand -33.4859 -17.8669
lfingers 7.12502
lthumb -6.68327 12.0076
rfemur -51.4856 -18.2928 6.98374
rtibia 53.4471
rfoot -14.6241 -3.20559
rtoes -11.0262
lfemur -45.3232 17.5365 -15.291
ltibia 49.7187
lfoot -13.9905 0.607977
ltoes -10.8711
517
root -19.4464 15.2678 -0.178315 139.701 83.2796 121.949
lowerback 25.0809 -0.766685 -3.35563
upperback 5.68476 -1.34634 0.200251
thorax -7.54342 -0.389209 2.53347
lowerneck -28.1688 4.03613 -0.91631
upperneck 11.3878 7.44687 -8.03066
head 8.37154 2.64603 -1.48856
rclavicle 4.21423e-014 5.84427e-014
rhumerus -9.68381 1.39188 -75.3058
rradius 77.1156
rwrist -12.3809
rhand -27.2841 -29.2489
rfingers 7.12502
rthumb -0.694462 660.773
lclavicle 4.21423e-014 5.84427e-014
lhumerus -4.32884 -14.6722 72.1408
lradius 66.5557
lwrist 21.1973
lhand -32.1315 -16.0388
lfingers 7.12502
lthumb -5.37572 13.873
rfemur -51.4783 -18.2151 6.98435
rtibia 53.4737
rfoot -14.622 -3.26563
rtoes -11.2977
lfemur -45.3424 17.5799 -15.2889
ltibia 49.8788
lfoot -14.0561 0.681809
ltoes -11.0119
518
root -19.4355 15.2615 -0.188544 139.506 83.3746 121.762
lowerback 25.0895 -0.761489 -3.24416
upperback 5.67388 -1.31711 0.160725
thorax -7.56632 -0.377262 2.41746
lowerneck -28.2345 4.3662 -0.650566
upperneck 11.4579 7.85057 -8.28262
head 8.44516 2.81625 -1.55197
rclavicle -4.77083e-015 -3.57812e-015
rhumerus -9.92544 1.5105 -75.3846
rradius 77.1995
rwrist -12.7479
rhand -27.4609 -28.3146
rfingers 7.12502
rthumb -0.865198 661.707
lclavicle -4.77083e-015 -3.57812e-015
lhumerus -4.38677 -15.5518 71.7073
lradius 66.4319
lwrist 20.7717
lhand -30.5084 -14.5629
lfingers 7.12502
lthumb -3.80845 15.3828
rfemur -51.4564 -18.081 6.97998
rtibia 53.5298
rfoot -14.755 -3.35785
rtoes -11.3772
lfemur -45.3397 17.5734 -15.2095
ltibia 50.0421
lfoot -14.2431 0.755261
ltoes -11.3244
519
root -19.4271 15.2558 -0.19572 139.361 83.4453 121.569
lowerback 25.0196 -0.754485 -3.18787
upperback 5.66123 -1.29505 0.15786
thorax -7.54804 -0.369231 2.37416
lowerneck -28.1806 4.71376 -0.335346
upperneck 11.4581 8.29116 -8.72493
head 8.49356 2.99243 -1.68254
rclavicle 5.1684e-015 2.34566e-014
rhumerus -10.0524 1.62363 -75.3926
rradius 77.1189
rwrist -13.0868
rhand -27.0634 -26.6249
rfingers 7.12502
rthumb -0.481341 663.396
lclavicle 5.1684e-015 2.34566e-014
lhumerus -4.41237 -16.5365 71.297
lradius 66.2355
lwrist 20.3994
lhand -28.4568 -13.1618
lfingers 7.12502
lthumb -1.82705 16.8101
rfemur -51.5144 -17.9667 6.97281
rtibia 53.594
rfoot -14.9414 -3.47444
rtoes -11.636
lfemur -45.4133 17.617 -15.1836
ltibia 50.1731
lfoot -14.3971 0.750515
ltoes -11.5578
520
root -19.4153 15.2546 -0.200985 138.37 83.4767 120.558
lowerback 24.9316 -0.700439 -3.24238
upperback 5.64854 -1.24175 0.137145
thorax -7.51969 -0.344899 2.36503
lowerneck -27.9249 4.99951 -0.0567026
upperneck 11.3899 8.64507 -9.14021
head 8.48299 3.13807 -1.81384
rclavicle 3.33958e-014 -9.93923e-015
rhumerus -10.1802 1.68327 -75.3611
rradius 77.0458
rwrist -13.1422
rhand -26.5402 -26.5951
rfingers 7.12502
rthumb 0.0240333 663.425
lclavicle 3.33958e-014 -9.93923e-015
lhumerus -4.3333 -17.7279 70.9149
lradius 65.9104
lwrist 20.2067
lhand -26.1973 -11.6003
lfingers 7.12502
lthumb 0.355213 18.3792
rfemur -51.5458 -17.8818 6.89216
rtibia 53.6473
rfoot -14.9501 -3.53143
rtoes -12.1421
lfemur -45.3917 17.7156 -15.2651
ltibia 50.2396
lfoot -14.429 0.771202
ltoes -11.5409
521
root -19.3991 15.2576 -0.204983 137.944 83.4961 120.252
lowerback 24.9691 -0.66696 -3.23381
upperback 5.68613 -1.19372 0.134425
thorax -7.5003 -0.321567 2.34269
lowerneck -27.774 5.20991 0.167796
upperneck 11.3837 8.91593 -9.49629
head 8.50272 3.24291 -1.92814
rclavicle 5.96354e-015 -2.18663e-014
rhumerus -10.358 1.76051 -75.2899
rradius 77.0164
rwrist -13.0061
rhand -26.0404 -27.2588
rfingers 7.12502
rthumb 0.506705 662.762
lclavicle 5.96354e-015 -2.18663e-014
lhumerus -4.31522 -19.0307 70.5173
lradius 65.7324
lwrist 19.9083
lhand -23.937 -10.5889
lfingers 7.12502
lthumb 2.53819 19.3758
rfemur -51.3648 -17.8395 6.82259
rtibia 53.6848
rfoot -14.8905 -3.50196
rtoes -12.2131
lfemur -45.19 17.7636 -15.2531
ltibia 50.2514
lfoot -14.505 0.808528
ltoes -11.5996
522
root -19.3863 15.259 -0.205728 138.136 83.4306 120.535
lowerback 25.1375 -0.6709 -3.23089
upperback 5.66677 -1.20208 0.135394
thorax -7.60688 -0.322152 2.34791
lowerneck -27.8021 5.41067 0.369278
upperneck 11.5169 9.18929 -9.79394
head 8.59589 3.34144 -2.01589
rclavicle -9.54166e-015 2.98177e-014
rhumerus -10.5788 1.89826 -75.2088
rradius 76.7572
rwrist -12.9943
rhand -26.0086 -26.8594
rfingers 7.12502
rthumb 0.537481 663.162
lclavicle -9.54166e-015 2.98177e-014
lhumerus -4.40132 -20.296 70.147
lradius 65.6039
lwrist 19.2218
lhand -21.4998 -10.4738
lfingers 7.12502
lthumb 4.89175 19.4498
rfemur -51.1792 -17.8746 6.72882
rtibia 53.7287
rfoot -14.9313 -3.47246
rtoes -12.0083
lfemur -45.0627 17.6909 -15.2527
ltibia 50.2361
lfoot -14.5918 0.824281
ltoes -11.8205
523
root -19.3778 15.2571 -0.201658 138.473 83.3684 120.875
lowerback 25.3145 -0.663366 -3.27499
upperback 5.60053 -1.21066 0.158982
thorax -7.76812 -0.321706 2.40607
lowerneck -27.8476 5.64473 0.474763
upperneck 11.6607 9.52053 -9.97473
head 8.68804 3.47376 -2.03903
rclavicle -1.11319e-014 -1.39149e-014
rhumerus -10.7386 2.07662 -75.116
rradius 76.3698
rwrist -13.0129
rhand -26.5524 -26.7912
rfingers 7.12502
rthumb 0.0122246 663.229
lclavicle -1.11319e-014 -1.39149e-014
lhumerus -4.48059 -21.5842 69.8633
lradius 65.3259
lwrist 18.1266
lhand -19.7519 -11.0783
lfingers 7.12502
lthumb 6.57934 18.7995
rfemur -51.1297 -17.8705 6.68169
rtibia 53.7877
rfoot -15.0126 -3.52465
rtoes -11.9778
lfemur -45.0377 17.6033 -15.247
ltibia 50.2214
lfoot -14.5308 0.840817
ltoes -11.9889
524
root -19.3695 15.255 -0.195079 139.366 83.3831 121.723
lowerback 24.9154 -0.675888 -3.08461
upperback 5.88281 -1.14794 0.10466
thorax -7.26228 -0.302548 2.20668
lowerneck -27.9317 5.82615 0.609994
upperneck 11.4411 9.73638 -10.1565
head 8.65587 3.57267 -2.08601
rclavicle 1.98785e-014 1.90833e-014
rhumerus -10.2982 1.98242 -75.1169
rradius 75.9268
rwrist -12.867
rhand -26.7719 -27.3636
rfingers 7.12502
rthumb -0.199827 662.657
lclavicle 1.98785e-014 1.90833e-014
lhumerus -3.95796 -22.909 69.2796
lradius 64.943
lwrist 16.5422
lhand -18.6893 -12.2034
lfingers 7.12502
lthumb 7.60505 17.6398
rfemur -51.1653 -17.829 6.77199
rtibia 53.8531
rfoot -15.0817 -3.64183
rtoes -11.8892
lfemur -45.0651 17.5541 -15.1361
ltibia 50.214
lfoot -14.4039 0.853306
ltoes -12.2098
525
root -19.358 15.2551 -0.187809 139.684 83.3754 121.945
lowerback 25.1819 -0.662013 -3.13774
upperback 5.66597 -1.16476 0.161852
thorax -7.63456 -0.304739 2.31293
lowerneck -27.945 6.0925 0.719447
upperneck 11.6238 10.1216 -10.3734
head 8.76451 3.72494 -2.11244
rclavicle 3.65764e-014 2.10712e-014
rhumerus -10.4566 2.44536 -75.0136
rradius 75.6388
rwrist -12.7199
rhand -26.2423 -27.6228
rfingers 7.12502
rthumb 0.311698 662.398
lclavicle 3.65764e-014 2.10712e-014
lhumerus -4.38887 -23.9597 69.2301
lradius 64.678
lwrist 14.7031
lhand -17.352 -13.4405
lfingers 7.12502
lthumb 8.89568 16.352
rfemur -51.2505 -17.8105 6.81903
rtibia 53.9161
rfoot -15.1546 -3.699
rtoes -11.666
lfemur -45.1384 17.5442 -15.1159
ltibia 50.1937
lfoot -14.2754 0.892936
ltoes -12.7607
